<svg xmlns="http://www.w3.org/2000/svg" data-name="Layer 1" viewBox="0 0 108 108"><path d="m0 63 54 27 54-27-54-27L0 63z" style="fill:#ff47d4"/><path d="m0 54 18 9V45L0 36" style="fill:#393fb3"/><path d="M18 45v18l18-9V36l-18 9z" style="fill:#4148cc"/><path d="m18 45 18-9-18-9-18 9" style="fill:#525aff"/><path d="m36 36 18 9V27l-18-9" style="fill:#b32424"/><path d="M54 27v18l18-9V18l-18 9z" style="fill:#cc2929"/><path d="m54 27 18-9-18-9-18 9" style="fill:#f33"/><path d="m36 72 18 9V63l-18-9" style="fill:#b3ae39"/><path d="M54 63v18l18-9V54l-18 9z" style="fill:#ccc741"/><path d="m54 63 18-9-18-9-18 9" style="fill:#fff700"/><path d="m72 54 18 9V45l-18-9" style="fill:#39b34d"/><path d="M90 45v18l18-9V36l-18 9z" style="fill:#41cc58"/><path d="m90 45 18-9-18-9-18 9" style="fill:#52ff6e"/><path d="m0 72 54 27v-9L0 63v9z" style="fill:#b33295"/><path d="M108 72v-9L54 90v9l54-27z" style="fill:#e640bf"/></svg>